{
  "accessors": [
    {
      "name": "ZBrushPolyMesh3D11_1_0_positions",
      "componentType": 5126,
      "count": 820,
      "min": [
        -19.444290161132812,
        104.83595275878906,
        -9.967964172363281
      ],
      "max": [
        19.15876579284668,
        158.85060119628906,
        1.1495879888534546
      ],
      "type": "VEC3",
      "bufferView": 0,
      "byteOffset": 0
    },
    {
      "name": "ZBrushPolyMesh3D11_1_0_normals",
      "componentType": 5126,
      "count": 820,
      "min": [
        -0.9999998211860657,
        -0.7495937943458557,
        -0.9797137975692749
      ],
      "max": [
        0.9874443411827087,
        0.6716549396514893,
        1
      ],
      "type": "VEC3",
      "bufferView": 1,
      "byteOffset": 0
    },
    {
      "name": "ZBrushPolyMesh3D11_1_0_texcoords",
      "componentType": 5126,
      "count": 820,
      "min": [
        0.3226200044155121,
        0.6594600081443787
      ],
      "max": [
        0.6139000058174133,
        0.9789199829101562
      ],
      "type": "VEC2",
      "bufferView": 2,
      "byteOffset": 0
    },
    {
      "name": "ZBrushPolyMesh3D11_1_0_indices",
      "componentType": 5123,
      "count": 4218,
      "min": [
        0
      ],
      "max": [
        819
      ],
      "type": "SCALAR",
      "bufferView": 3,
      "byteOffset": 0
    },
    {
      "name": "ZBrushPolyMesh3D12_1_0_positions",
      "componentType": 5126,
      "count": 7204,
      "min": [
        -54.4305305480957,
        4.5419111251831055,
        -11.411044120788574
      ],
      "max": [
        54.32584762573242,
        161.71861267089844,
        21.64037322998047
      ],
      "type": "VEC3",
      "bufferView": 0,
      "byteOffset": 9840
    },
    {
      "name": "ZBrushPolyMesh3D12_1_0_normals",
      "componentType": 5126,
      "count": 7204,
      "min": [
        -0.9999808073043823,
        -0.9999853372573853,
        -0.9999678730964661
      ],
      "max": [
        0.9995775818824768,
        0.9981634616851807,
        0.9996144771575928
      ],
      "type": "VEC3",
      "bufferView": 1,
      "byteOffset": 9840
    },
    {
      "name": "ZBrushPolyMesh3D12_1_0_texcoords",
      "componentType": 5126,
      "count": 7204,
      "min": [
        0.0026000000070780516,
        0.004530000034719706
      ],
      "max": [
        0.9967010021209717,
        0.9968199729919434
      ],
      "type": "VEC2",
      "bufferView": 2,
      "byteOffset": 6560
    },
    {
      "name": "ZBrushPolyMesh3D12_1_0_indices",
      "componentType": 5123,
      "count": 35877,
      "min": [
        0
      ],
      "max": [
        7203
      ],
      "type": "SCALAR",
      "bufferView": 3,
      "byteOffset": 8436
    },
    {
      "name": "ZBrushPolyMesh3D10_1_0_positions",
      "componentType": 5126,
      "count": 2990,
      "min": [
        -26.574249267578125,
        65.11507415771484,
        -6.111124038696289
      ],
      "max": [
        26.67407989501953,
        156.4075927734375,
        17.004417419433594
      ],
      "type": "VEC3",
      "bufferView": 0,
      "byteOffset": 96288
    },
    {
      "name": "ZBrushPolyMesh3D10_1_0_normals",
      "componentType": 5126,
      "count": 2990,
      "min": [
        -0.9985839128494263,
        -0.9932429194450378,
        -0.9926082491874695
      ],
      "max": [
        0.9971222281455994,
        0.9972281455993652,
        0.999323308467865
      ],
      "type": "VEC3",
      "bufferView": 1,
      "byteOffset": 96288
    },
    {
      "name": "ZBrushPolyMesh3D10_1_0_texcoords",
      "componentType": 5126,
      "count": 2990,
      "min": [
        0.17071999609470367,
        0.3310000002384186
      ],
      "max": [
        0.9934899806976318,
        0.6586499810218811
      ],
      "type": "VEC2",
      "bufferView": 2,
      "byteOffset": 64192
    },
    {
      "name": "ZBrushPolyMesh3D10_1_0_indices",
      "componentType": 5123,
      "count": 13194,
      "min": [
        0
      ],
      "max": [
        2989
      ],
      "type": "SCALAR",
      "bufferView": 3,
      "byteOffset": 80192
    },
    {
      "name": "ZBrushPolyMesh3D8_1_0_positions",
      "componentType": 5126,
      "count": 741,
      "min": [
        -18.53189468383789,
        105.28530883789062,
        3.224822998046875
      ],
      "max": [
        18.641626358032227,
        158.2880859375,
        17.610118865966797
      ],
      "type": "VEC3",
      "bufferView": 0,
      "byteOffset": 132168
    },
    {
      "name": "ZBrushPolyMesh3D8_1_0_normals",
      "componentType": 5126,
      "count": 741,
      "min": [
        -0.9370320439338684,
        -0.4431110620498657,
        0.14058001339435577
      ],
      "max": [
        0.963070273399353,
        0.9899060726165771,
        0.9999420046806335
      ],
      "type": "VEC3",
      "bufferView": 1,
      "byteOffset": 132168
    },
    {
      "name": "ZBrushPolyMesh3D8_1_0_texcoords",
      "componentType": 5126,
      "count": 741,
      "min": [
        0.047520000487565994,
        0.6765999794006348
      ],
      "max": [
        0.2746500074863434,
        0.9934599995613098
      ],
      "type": "VEC2",
      "bufferView": 2,
      "byteOffset": 88112
    },
    {
      "name": "ZBrushPolyMesh3D8_1_0_indices",
      "componentType": 5123,
      "count": 4056,
      "min": [
        0
      ],
      "max": [
        740
      ],
      "type": "SCALAR",
      "bufferView": 3,
      "byteOffset": 106580
    },
    {
      "name": "ZBrushPolyMesh3D13_1_0_positions",
      "componentType": 5126,
      "count": 1029,
      "min": [
        -17.66986083984375,
        104.9280776977539,
        -11.489832878112793
      ],
      "max": [
        17.995683670043945,
        152.67123413085938,
        0.5199940204620361
      ],
      "type": "VEC3",
      "bufferView": 0,
      "byteOffset": 141060
    },
    {
      "name": "ZBrushPolyMesh3D13_1_0_normals",
      "componentType": 5126,
      "count": 1029,
      "min": [
        -0.9758617877960205,
        -0.6744170784950256,
        -0.9999989867210388
      ],
      "max": [
        0.9644256830215454,
        0.981844425201416,
        0.093314990401268
      ],
      "type": "VEC3",
      "bufferView": 1,
      "byteOffset": 141060
    },
    {
      "name": "ZBrushPolyMesh3D13_1_0_texcoords",
      "componentType": 5126,
      "count": 1029,
      "min": [
        0.35034000873565674,
        0.7159000039100647
      ],
      "max": [
        0.5872700214385986,
        0.9936599731445312
      ],
      "type": "VEC2",
      "bufferView": 2,
      "byteOffset": 94040
    },
    {
      "name": "ZBrushPolyMesh3D13_1_0_indices",
      "componentType": 5123,
      "count": 5757,
      "min": [
        0
      ],
      "max": [
        1028
      ],
      "type": "SCALAR",
      "bufferView": 3,
      "byteOffset": 114692
    },
    {
      "name": "ZBrushPolyMesh3D9_1_0_positions",
      "componentType": 5126,
      "count": 238,
      "min": [
        -34.30390930175781,
        130.14402770996094,
        -6.2707061767578125
      ],
      "max": [
        34.358890533447266,
        136.69798278808594,
        6.0864129066467285
      ],
      "type": "VEC3",
      "bufferView": 0,
      "byteOffset": 153408
    },
    {
      "name": "ZBrushPolyMesh3D9_1_0_normals",
      "componentType": 5126,
      "count": 238,
      "min": [
        -0.963654100894928,
        -0.9353641867637634,
        -0.9920265078544617
      ],
      "max": [
        0.9535405039787292,
        0.9959774017333984,
        1
      ],
      "type": "VEC3",
      "bufferView": 1,
      "byteOffset": 153408
    },
    {
      "name": "ZBrushPolyMesh3D9_1_0_texcoords",
      "componentType": 5126,
      "count": 238,
      "min": [
        0.004397000186145306,
        0.33608898520469666
      ],
      "max": [
        0.414465993642807,
        0.36500999331474304
      ],
      "type": "VEC2",
      "bufferView": 2,
      "byteOffset": 102272
    },
    {
      "name": "ZBrushPolyMesh3D9_1_0_indices",
      "componentType": 5123,
      "count": 1152,
      "min": [
        0
      ],
      "max": [
        237
      ],
      "type": "SCALAR",
      "bufferView": 3,
      "byteOffset": 126208
    }
  ],
  "asset": {
    "generator": "obj2gltf",
    "version": "2.0"
  },
  "buffers": [
    {
      "name": "LP5",
      "byteLength": 545216,
      "uri": "data:application/octet-stream;base64,"
    }
  ],
  "bufferViews": [
    {
      "name": "bufferView_0",
      "buffer": 0,
      "byteLength": 156264,
      "byteOffset": 0,
      "byteStride": 12,
      "target": 34962
    },
    {
      "name": "bufferView_1",
      "buffer": 0,
      "byteLength": 156264,
      "byteOffset": 156264,
      "byteStride": 12,
      "target": 34962
    },
    {
      "name": "bufferView_2",
      "buffer": 0,
      "byteLength": 104176,
      "byteOffset": 312528,
      "byteStride": 8,
      "target": 34962
    },
    {
      "name": "bufferView_3",
      "buffer": 0,
      "byteLength": 128512,
      "byteOffset": 416704,
      "target": 34963
    }
  ],
  "materials": [
    {
      "name": "lambert2SG",
      "pbrMetallicRoughness": {
        "baseColorFactor": [
          0.5,
          0.5,
          0.5,
          1
        ],
        "metallicFactor": 0,
        "roughnessFactor": 1
      },
      "emissiveFactor": [
        0,
        0,
        0
      ],
      "alphaMode": "OPAQUE",
      "doubleSided": false
    }
  ],
  "meshes": [
    {
      "name": "ZBrushPolyMesh3D11_1",
      "primitives": [
        {
          "attributes": {
            "POSITION": 0,
            "NORMAL": 1,
            "TEXCOORD_0": 2
          },
          "indices": 3,
          "material": 0,
          "mode": 4
        }
      ]
    },
    {
      "name": "ZBrushPolyMesh3D12_1",
      "primitives": [
        {
          "attributes": {
            "POSITION": 4,
            "NORMAL": 5,
            "TEXCOORD_0": 6
          },
          "indices": 7,
          "material": 0,
          "mode": 4
        }
      ]
    },
    {
      "name": "ZBrushPolyMesh3D10_1",
      "primitives": [
        {
          "attributes": {
            "POSITION": 8,
            "NORMAL": 9,
            "TEXCOORD_0": 10
          },
          "indices": 11,
          "material": 0,
          "mode": 4
        }
      ]
    },
    {
      "name": "ZBrushPolyMesh3D8_1",
      "primitives": [
        {
          "attributes": {
            "POSITION": 12,
            "NORMAL": 13,
            "TEXCOORD_0": 14
          },
          "indices": 15,
          "material": 0,
          "mode": 4
        }
      ]
    },
    {
      "name": "ZBrushPolyMesh3D13_1",
      "primitives": [
        {
          "attributes": {
            "POSITION": 16,
            "NORMAL": 17,
            "TEXCOORD_0": 18
          },
          "indices": 19,
          "material": 0,
          "mode": 4
        }
      ]
    },
    {
      "name": "ZBrushPolyMesh3D9_1",
      "primitives": [
        {
          "attributes": {
            "POSITION": 20,
            "NORMAL": 21,
            "TEXCOORD_0": 22
          },
          "indices": 23,
          "material": 0,
          "mode": 4
        }
      ]
    }
  ],
  "nodes": [
    {
      "name": "ZBrushPolyMesh3D11",
      "mesh": 0
    },
    {
      "name": "ZBrushPolyMesh3D12",
      "mesh": 1
    },
    {
      "name": "ZBrushPolyMesh3D10",
      "mesh": 2
    },
    {
      "name": "ZBrushPolyMesh3D8",
      "mesh": 3
    },
    {
      "name": "ZBrushPolyMesh3D13",
      "mesh": 4
    },
    {
      "name": "ZBrushPolyMesh3D9",
      "mesh": 5
    }
  ],
  "scene": 0,
  "scenes": [
    {
      "nodes": [
        0,
        1,
        2,
        3,
        4,
        5
      ]
    }
  ]
}
